<svg width="840" height="400" viewBox="0 0 840 400" fill="none" xmlns="http://www.w3.org/2000/svg">
    <style>
        .text { font-family: -apple-system, BlinkMacSystemFont, "Segoe UI", Helvetica, Arial, sans-serif; fill: #ffffff; }
        .text-dim { fill: #8b949e; }
        .card { fill: #161b22; stroke: #30363d; stroke-width: 1; }
    </style>
    <rect width="840" height="400" fill="#0d1117" rx="0"/>
    
    <g transform="translate(0, 0)">
        <rect width="340" height="195" class="card" rx="20"/>
        
        <!-- Avatar / Icon Placeholder -->
        <circle cx="50" cy="50" r="25" fill="#30363d"/>
        <text x="50" y="58" text-anchor="middle" font-size="20">⚡</text>
        
        <text x="90" y="45" class="text" font-size="24" font-weight="bold">mel-cell</text>
        <text x="90" y="70" class="text-dim" font-size="14">Full Stack Developer</text>
        
        <!-- Big Stats Row -->
        <g transform="translate(30, 110)">
            <text x="0" y="0" class="text-dim" font-size="12">Repositories</text>
            <text x="0" y="25" class="text" font-size="24" font-weight="bold">38</text>
            
            <text x="100" y="0" class="text-dim" font-size="12">Followers</text>
            <text x="100" y="25" class="text" font-size="24" font-weight="bold">17</text>
            
            <text x="200" y="0" class="text-dim" font-size="12">Stars</text>
            <text x="200" y="25" class="text" font-size="24" font-weight="bold">2</text>
        </g>
    </g>
    
    <g transform="translate(0, 205)">
        <rect width="340" height="195" class="card" rx="20"/>
        <text x="30" y="35" class="text" font-size="16" font-weight="bold">Top Skills</text>
        
        <!-- Radial Charts Container -->
        <g transform="translate(40, 60)">
    
    <circle cx="35" cy="50" r="35" fill="none" stroke="#30363d" stroke-width="6" />
    <circle cx="35" cy="50" r="35" fill="none" stroke="#ffffff" stroke-width="6" 
            stroke-dasharray="219.9114857512855" stroke-dashoffset="182.52653317356697" stroke-linecap="round" transform="rotate(-90 35 50)" />
    <text x="35" y="55" text-anchor="middle" font-family="sans-serif" font-weight="bold" font-size="14" fill="#ffffff">17%</text>
    <text x="35" y="105" text-anchor="middle" class="text-dim" font-size="12">TypeScript</text>
    <circle cx="135" cy="50" r="35" fill="none" stroke="#30363d" stroke-width="6" />
    <circle cx="135" cy="50" r="35" fill="none" stroke="#9ca3af" stroke-width="6" 
            stroke-dasharray="219.9114857512855" stroke-dashoffset="182.52653317356697" stroke-linecap="round" transform="rotate(-90 135 50)" />
    <text x="135" y="55" text-anchor="middle" font-family="sans-serif" font-weight="bold" font-size="14" fill="#ffffff">17%</text>
    <text x="135" y="105" text-anchor="middle" class="text-dim" font-size="12">JavaScript</text>
    <circle cx="235" cy="50" r="35" fill="none" stroke="#30363d" stroke-width="6" />
    <circle cx="235" cy="50" r="35" fill="none" stroke="#4b5563" stroke-width="6" 
            stroke-dasharray="219.9114857512855" stroke-dashoffset="189.12387774610553" stroke-linecap="round" transform="rotate(-90 235 50)" />
    <text x="235" y="55" text-anchor="middle" font-family="sans-serif" font-weight="bold" font-size="14" fill="#ffffff">14%</text>
    <text x="235" y="105" text-anchor="middle" class="text-dim" font-size="12">HTML</text>
        </g>
    </g>
    
    <g transform="translate(350, 0)">
        <rect width="490" height="195" class="card" rx="20"/>
        <text x="30" y="35" class="text" font-size="16" font-weight="bold">Contribution Activity</text>
        <text x="200" y="35" class="text-dim" font-size="12" text-anchor="end">Last 30 Days</text>
        
        <!-- Area Graph -->
        <g transform="translate(0, 50)">
            
    <path d="M 0 145 L 0.0,41.75 L 54.44444444444444,40.875 L 108.88888888888889,84.9375 L 163.33333333333331,91.46875 L 217.77777777777777,54.234375 L 272.22222222222223,47.1171875 L 326.66666666666663,52.05859375 L 381.1111111111111,52.029296875 L 435.55555555555554,54.5146484375 L 490.0,64.25732421875 L 490 145 Z" fill="rgba(255, 255, 255, 0.1)" />
    <path d="M 0.0,41.75 L 54.44444444444444,40.875 L 108.88888888888889,84.9375 L 163.33333333333331,91.46875 L 217.77777777777777,54.234375 L 272.22222222222223,47.1171875 L 326.66666666666663,52.05859375 L 381.1111111111111,52.029296875 L 435.55555555555554,54.5146484375 L 490.0,64.25732421875" fill="none" stroke="#ffffff" stroke-width="2" />
    
        </g>
    </g>
    
    <g transform="translate(350, 205)">
        <rect width="490" height="195" class="card" rx="20"/>
        
        <!-- Time Display -->
        <text x="30" y="140" class="text" font-size="64" font-weight="bold" letter-spacing="-2">11:35</text>
        <text x="35" y="170" class="text-dim" font-size="18">03 December 2025</text>
        
        <!-- Decorative "System" Elements -->
        <rect x="340" y="30" width="120" height="60" rx="10" fill="#30363d" opacity="0.3"/>
        <text x="400" y="65" text-anchor="middle" class="text" font-size="14">System Online</text>
        <circle cx="360" cy="60" r="4" fill="#4ade80"/>
    </g>
    </svg>